<?xml version="1.0" standalone="no"?>
<!DOCTYPE svg PUBLIC "-//W3C//DTD SVG 20010904//EN"
 "http://www.w3.org/TR/2001/REC-SVG-20010904/DTD/svg10.dtd">
<svg version="1.0" xmlns="http://www.w3.org/2000/svg"
 width="2777.000000pt" height="2777.000000pt" viewBox="0 0 2777.000000 2777.000000"
 preserveAspectRatio="xMidYMid meet">
<metadata>
Created by potrace 1.11, written by Peter Selinger 2001-2013
</metadata>
<g transform="translate(0.000000,2777.000000) scale(0.100000,-0.100000)"
fill="#000000" stroke="none">
<path d="M7719 27766 c-2 -2 -57 -7 -121 -10 -65 -4 -128 -9 -140 -11 -13 -2
-50 -6 -83 -10 -33 -3 -71 -7 -85 -9 -168 -22 -170 -22 -310 -47 -63 -12 -126
-23 -140 -25 -470 -84 -1157 -383 -1655 -719 -146 -98 -182 -125 -319 -234
-199 -158 -264 -217 -478 -433 -215 -216 -261 -273 -152 -187 150 118 393 282
544 366 117 66 161 89 258 138 128 64 218 105 332 152 47 18 94 38 105 43 58
27 400 134 535 169 135 34 175 43 250 57 17 3 82 17 90 19 6 1 95 15 140 21
19 3 45 7 56 9 12 2 48 6 80 10 33 3 73 8 89 10 208 27 783 27 990 0 22 -2 74
-9 115 -15 41 -5 95 -12 120 -15 51 -7 211 -37 315 -59 226 -49 588 -161 760
-236 11 -5 70 -30 130 -56 175 -74 466 -225 595 -309 309 -200 297 -194 425
-210 28 -3 57 -8 65 -10 8 -2 31 -6 50 -9 19 -3 44 -7 55 -10 25 -4 116 -20
130 -21 6 -1 30 -5 55 -9 55 -10 63 -12 120 -22 l45 -7 -35 -8 c-19 -5 -57
-11 -85 -15 -27 -3 -53 -8 -56 -10 -4 -2 -31 -6 -60 -10 -30 -3 -57 -8 -60
-10 -3 -1 -28 -6 -55 -10 -27 -3 -50 -7 -51 -8 -1 -1 15 -16 37 -32 70 -54
182 -157 314 -289 146 -145 180 -183 315 -343 51 -61 101 -114 110 -116 9 -3
31 -8 48 -11 18 -3 61 -12 95 -20 35 -8 75 -16 89 -19 34 -6 228 -45 259 -52
14 -3 48 -10 75 -15 28 -6 57 -12 65 -14 8 -2 26 -4 40 -5 53 -2 -10 -19 -245
-65 -132 -26 -241 -48 -242 -49 -1 -1 41 -67 93 -146 52 -80 131 -208 175
-285 44 -77 84 -147 89 -155 21 -35 162 -325 196 -403 l37 -85 51 -10 c73 -15
97 -20 231 -52 66 -16 131 -31 145 -33 14 -3 59 -13 100 -23 41 -9 81 -17 88
-17 6 0 12 -3 12 -7 0 -4 -44 -16 -97 -28 -54 -12 -147 -33 -208 -47 -130 -31
-140 -33 -182 -41 -18 -3 -33 -12 -33 -18 0 -7 11 -46 25 -87 59 -170 135
-459 171 -644 2 -11 6 -31 9 -45 3 -14 7 -36 10 -50 3 -14 7 -36 10 -50 3 -14
8 -43 10 -65 3 -22 7 -49 9 -60 3 -11 5 -28 5 -37 1 -21 5 -22 171 -52 74 -14
149 -28 165 -31 17 -3 107 -20 202 -38 95 -17 171 -33 169 -34 -3 -3 -307 -63
-401 -79 -253 -44 -270 -49 -269 -74 1 -14 5 -76 8 -139 12 -212 19 -476 18
-683 -1 -228 -5 -213 67 -224 20 -3 68 -12 106 -19 39 -8 86 -17 105 -20 19
-3 55 -10 80 -15 25 -5 108 -21 185 -36 145 -27 167 -31 175 -34 5 -2 -159
-36 -218 -45 -20 -3 -44 -7 -52 -10 -8 -2 -31 -7 -50 -9 -19 -3 -102 -18 -185
-34 -82 -17 -171 -33 -196 -37 l-47 -7 -7 -61 c-4 -34 -9 -71 -11 -82 -1 -11
-6 -40 -9 -65 -11 -86 -57 -316 -91 -460 -37 -154 -51 -203 -95 -345 -16 -49
-25 -92 -21 -96 4 -4 25 -10 47 -13 22 -3 76 -12 119 -21 44 -8 93 -18 110
-21 17 -3 63 -11 101 -19 39 -8 153 -30 255 -49 102 -20 196 -38 210 -41 14
-3 38 -8 54 -10 40 -6 42 -12 4 -19 -18 -3 -44 -8 -58 -11 -14 -3 -72 -14
-130 -25 -58 -11 -116 -22 -130 -25 -21 -4 -126 -24 -260 -50 -32 -6 -132 -25
-167 -31 -16 -3 -35 -7 -43 -9 -8 -3 -33 -7 -55 -11 -50 -8 -218 -43 -220 -46
-1 -2 -17 -39 -34 -83 -125 -306 -339 -686 -562 -1001 -79 -111 -125 -170
-234 -303 -168 -205 -451 -479 -674 -654 -20 -15 -43 -33 -51 -40 -8 -7 -62
-47 -120 -88 -297 -213 -678 -390 -980 -454 -8 -2 -37 -8 -64 -15 -50 -11 -62
-13 -151 -25 -259 -33 -462 -23 -640 32 -97 30 -262 102 -370 161 -141 78
-367 232 -476 325 l-38 33 137 69 c185 92 340 158 496 210 111 37 164 51 306
80 35 7 169 18 215 17 55 -1 177 -12 185 -17 3 -2 30 -6 60 -10 30 -4 58 -9
61 -11 3 -2 19 -5 35 -8 16 -3 63 -15 104 -26 41 -11 82 -22 90 -24 49 -13
224 -77 343 -126 l138 -58 70 51 c403 298 730 584 973 853 54 60 86 100 86
107 0 17 -494 280 -549 292 -9 2 -92 35 -186 73 -257 104 -449 167 -675 221
-109 25 -198 43 -215 42 -2 0 -19 5 -37 10 -18 5 -55 11 -83 14 -27 3 -66 8
-87 11 -85 13 -408 19 -523 10 -54 -5 -204 -24 -235 -31 -3 -1 -25 -5 -50 -9
-172 -29 -501 -130 -715 -218 -494 -205 -1019 -519 -1480 -887 -66 -53 -122
-98 -125 -101 -3 -3 -25 -21 -50 -40 -25 -19 -47 -37 -50 -40 -3 -3 -48 -39
-100 -80 -52 -41 -97 -77 -100 -80 -3 -3 -33 -28 -67 -54 l-63 -49 58 -66 c31
-36 68 -79 82 -95 14 -16 32 -36 40 -45 9 -9 43 -47 75 -86 33 -38 62 -72 65
-75 3 -3 23 -26 45 -51 136 -155 205 -229 330 -354 136 -136 158 -157 295
-276 36 -31 88 -77 116 -101 152 -133 445 -342 654 -468 104 -63 368 -200 445
-232 22 -9 61 -26 86 -36 144 -62 416 -140 564 -162 39 -6 81 -13 95 -15 131
-24 503 -24 700 0 19 2 58 7 85 10 512 59 1106 284 1615 610 98 63 311 216
380 274 393 328 627 563 937 945 20 25 154 205 173 232 8 12 56 82 106 156
256 375 484 809 676 1288 47 116 212 602 222 653 3 12 14 58 26 102 24 91 71
290 76 320 1 11 10 52 18 91 9 39 18 88 21 110 8 49 13 82 20 113 2 13 7 49
11 80 3 31 8 59 10 62 2 4 6 33 9 65 3 33 8 69 10 82 2 12 7 57 10 100 4 42 9
84 10 93 23 119 23 891 0 1079 -2 14 -6 59 -10 100 -4 41 -8 86 -10 100 -2 14
-6 50 -10 80 -4 30 -8 66 -10 80 -2 14 -7 45 -10 70 -3 25 -13 88 -21 140 -8
52 -17 111 -20 130 -6 41 -56 291 -79 400 -19 90 -72 303 -86 345 -5 17 -22
75 -38 130 -49 166 -70 232 -136 415 -198 547 -441 1032 -744 1484 -47 70 -90
136 -96 145 -5 9 -12 18 -15 21 -3 3 -44 58 -92 122 -605 810 -1411 1436
-2277 1764 -313 119 -677 212 -976 249 -27 4 -61 8 -75 10 -38 5 -149 17 -200
21 -66 6 -776 15 -781 10z"/>
<path d="M19419 27766 c-2 -2 -58 -7 -124 -10 -66 -4 -131 -8 -145 -10 -14 -3
-52 -7 -85 -11 -75 -8 -124 -14 -150 -20 -11 -2 -42 -7 -70 -10 -119 -16 -355
-73 -585 -142 -327 -99 -777 -306 -1060 -488 -386 -248 -625 -440 -930 -745
-196 -195 -429 -460 -509 -579 -14 -20 -27 -38 -31 -41 -11 -9 -154 -213 -223
-318 -63 -97 -247 -399 -247 -407 0 -2 -17 -34 -39 -72 -166 -294 -348 -707
-472 -1073 -65 -190 -176 -567 -194 -659 -2 -9 -12 -54 -24 -101 -33 -140 -88
-425 -111 -580 -34 -236 -46 -330 -56 -450 -3 -41 -7 -93 -9 -115 -20 -235
-26 -649 -12 -902 4 -77 9 -149 11 -160 2 -10 7 -54 11 -97 4 -43 8 -86 10
-95 1 -9 6 -43 9 -76 4 -33 9 -71 11 -85 2 -14 9 -56 15 -95 6 -38 13 -83 16
-100 12 -80 59 -303 85 -410 17 -66 32 -131 35 -145 21 -102 177 -584 246
-760 99 -252 256 -588 378 -806 33 -59 60 -109 60 -111 0 -1 15 -26 33 -56 17
-29 37 -61 44 -72 58 -97 153 -241 240 -363 343 -480 640 -801 1093 -1183 138
-117 401 -302 580 -409 213 -127 548 -279 792 -360 109 -36 288 -87 337 -95
19 -3 37 -8 41 -10 7 -4 217 -40 295 -50 207 -27 499 -36 670 -21 267 23 571
98 792 197 24 10 45 19 47 19 8 0 264 126 331 163 481 262 1039 719 1444 1182
62 72 128 146 145 165 117 130 296 340 296 347 -1 6 -465 383 -632 511 -24 18
-50 39 -58 45 -40 32 -199 143 -320 224 -319 214 -659 399 -980 536 -226 96
-575 204 -750 232 -25 4 -52 9 -60 10 -20 3 -98 16 -130 20 -149 21 -461 22
-630 1 -140 -18 -242 -37 -450 -88 -184 -44 -471 -135 -575 -182 -16 -8 -77
-33 -135 -56 -205 -81 -298 -127 -527 -255 l-142 -79 22 -30 c39 -54 375 -389
493 -491 64 -55 121 -105 128 -110 59 -54 384 -305 474 -367 22 -15 30 -13
145 37 166 71 346 132 467 160 8 1 33 8 55 14 157 42 401 65 494 47 14 -3 51
-8 81 -12 130 -14 393 -97 590 -184 149 -66 351 -171 348 -181 -5 -15 -272
-211 -380 -278 -241 -151 -496 -254 -683 -276 -104 -13 -329 -9 -420 6 -27 4
-68 11 -90 14 -22 3 -47 7 -55 10 -8 2 -31 6 -50 9 -187 28 -499 149 -756 292
-155 86 -275 167 -434 290 -490 382 -915 888 -1249 1488 -60 107 -191 369
-191 381 0 6 -56 131 -73 165 -9 17 -24 27 -52 31 -55 10 -61 11 -325 62 -436
85 -555 108 -585 113 -16 3 -57 11 -90 18 l-60 12 60 12 c33 6 69 13 80 15 11
3 40 8 65 13 25 4 47 8 50 9 30 6 90 18 110 22 45 8 484 92 510 98 14 3 37 6
52 7 23 2 27 6 22 23 -4 11 -19 61 -35 110 -36 114 -71 249 -108 418 -41 184
-62 310 -86 508 l-7 57 -42 7 c-22 4 -52 9 -66 11 -14 2 -36 6 -50 9 -14 4
-47 11 -75 16 -27 4 -63 11 -80 14 -54 11 -298 56 -370 69 -71 13 -70 19 5 31
19 3 42 8 50 10 8 2 35 7 60 10 24 4 47 8 50 10 3 2 23 6 45 9 22 3 63 11 90
16 62 13 90 18 135 26 19 4 44 8 55 11 41 8 140 25 151 26 8 0 11 62 10 206
-1 271 15 731 28 811 3 14 2 31 -2 36 -4 6 -52 19 -107 29 -55 10 -109 20
-120 22 -37 7 -179 34 -260 48 -44 8 -93 19 -110 23 -16 5 -36 7 -42 5 -7 -3
-13 0 -13 5 0 5 15 13 33 16 32 6 40 8 107 20 19 3 46 8 60 11 14 3 37 7 53
10 15 3 39 7 55 10 118 21 373 73 377 76 5 5 10 34 30 168 9 58 20 120 25 136
5 17 11 44 13 60 15 97 101 423 156 594 32 99 31 111 -11 116 -13 2 -61 12
-108 23 -47 12 -147 35 -222 53 -76 17 -138 34 -138 38 0 5 231 62 315 77 17
3 64 14 105 24 41 10 101 24 133 30 l59 12 30 66 c155 344 316 635 506 917
l60 90 -32 7 c-18 4 -44 9 -57 12 -13 2 -35 7 -49 10 -14 3 -36 8 -50 10 -45
8 -285 57 -305 63 -11 3 122 34 295 69 339 68 359 72 376 73 6 1 65 65 130
144 108 129 351 382 464 483 34 30 168 143 188 159 1 1 -44 10 -100 19 -57 9
-112 18 -123 20 -11 2 -55 9 -98 16 -43 7 -76 14 -75 16 3 2 268 49 333 59 17
2 41 6 55 9 14 3 41 7 60 10 19 3 46 8 60 10 14 3 41 7 60 10 19 3 47 8 61 11
15 3 76 38 135 78 60 40 127 84 149 97 130 79 172 103 239 138 28 14 58 30 66
37 13 9 221 109 330 158 306 137 778 276 1125 331 17 3 44 7 60 10 37 6 92 13
170 22 33 3 68 8 78 10 139 25 888 24 987 -1 8 -2 47 -7 85 -10 39 -4 77 -8
85 -10 8 -3 35 -7 60 -10 25 -3 79 -12 120 -20 41 -8 86 -17 100 -19 278 -50
735 -194 988 -312 29 -13 55 -24 58 -24 11 0 287 -142 389 -200 181 -103 334
-199 368 -231 12 -10 26 -19 33 -19 7 0 14 -3 16 -8 2 -4 33 -29 70 -55 36
-26 72 -53 80 -59 7 -7 31 -26 53 -43 l40 -30 -22 30 c-26 37 -325 341 -408
416 -114 102 -140 124 -241 205 -208 167 -461 340 -644 442 -25 13 -49 28 -55
32 -26 19 -271 143 -365 185 -58 25 -118 52 -135 60 -118 53 -426 164 -560
200 -134 37 -333 78 -490 101 -16 3 -52 9 -80 14 -60 12 -136 20 -310 35 -44
4 -91 9 -105 12 -28 6 -755 14 -761 9z"/>
<path d="M15498 16872 c-81 -172 -102 -229 -146 -387 -30 -107 -55 -219 -67
-300 -3 -23 -7 -50 -9 -62 -22 -114 -23 -489 -1 -602 2 -10 6 -34 9 -52 13
-77 17 -97 33 -149 25 -86 40 -131 61 -185 25 -62 97 -210 123 -250 10 -16 23
-39 28 -50 14 -31 169 -234 220 -289 91 -97 140 -145 217 -211 131 -113 120
-104 243 -191 5 -4 -33 -51 -92 -114 -55 -58 -193 -212 -243 -269 -16 -19 -36
-41 -44 -50 -9 -9 -43 -47 -75 -86 -33 -38 -67 -77 -75 -85 -8 -8 -40 -44 -70
-80 -30 -36 -65 -76 -76 -90 -31 -36 -103 -121 -127 -150 -11 -14 -34 -41 -51
-61 -17 -19 -48 -56 -70 -82 -125 -153 -250 -305 -264 -322 -171 -203 -680
-874 -943 -1242 -105 -147 -195 -268 -199 -268 -5 0 -71 88 -147 195 -76 107
-157 220 -179 250 -23 30 -87 118 -144 195 -146 198 -515 677 -637 825 -6 8
-49 60 -93 115 -45 55 -98 120 -118 145 -73 88 -366 436 -401 476 -20 22 -47
53 -61 70 -36 43 -154 178 -160 184 -3 3 -45 50 -94 105 -49 55 -126 140 -170
189 -103 113 -126 140 -126 146 1 3 26 23 57 45 236 167 475 418 624 655 115
182 220 455 244 633 3 18 7 43 10 56 6 32 17 220 18 301 0 274 -63 602 -170
880 -29 75 -120 270 -126 270 -2 0 -34 -36 -71 -80 -244 -292 -557 -578 -982
-900 l-92 -69 2 -93 c4 -157 -33 -238 -169 -374 -189 -188 -433 -329 -855
-494 -129 -50 -244 -96 -255 -100 -11 -5 -83 -34 -160 -63 -420 -163 -540
-210 -544 -213 -2 -2 126 -131 284 -286 627 -616 913 -906 1171 -1187 32 -36
73 -79 89 -96 17 -18 61 -67 100 -111 38 -43 72 -81 75 -84 9 -9 92 -102 160
-179 36 -41 70 -79 75 -85 11 -12 176 -205 210 -245 11 -13 25 -29 30 -35 6
-6 71 -83 144 -171 73 -88 142 -171 154 -185 47 -56 456 -571 512 -645 33 -44
62 -82 65 -85 22 -21 539 -725 612 -834 7 -10 20 -28 29 -40 43 -57 279 -406
279 -412 0 -2 40 -63 88 -136 49 -73 103 -155 120 -183 18 -27 37 -57 42 -65
22 -33 194 -307 210 -335 10 -16 73 -123 141 -236 68 -113 142 -237 164 -277
22 -39 42 -72 45 -72 3 0 30 44 60 98 30 53 92 160 139 237 46 77 89 149 95
160 60 108 350 561 585 914 64 95 127 190 140 210 13 20 27 38 30 41 3 3 20
25 36 50 141 212 552 766 834 1125 153 195 497 624 510 635 4 3 40 46 81 95
41 50 77 92 80 95 3 3 57 66 120 140 100 117 138 161 185 214 6 6 28 31 49 56
58 67 398 441 441 486 5 6 51 55 100 110 97 106 667 678 1068 1071 l248 243
-43 19 c-24 11 -74 32 -113 47 -38 14 -83 32 -100 38 -16 7 -66 27 -110 44
-778 300 -820 317 -978 398 -325 165 -568 377 -623 541 -17 49 -21 85 -20 159
l2 96 -101 76 c-106 81 -337 262 -345 271 -3 3 -41 37 -85 76 -225 197 -452
427 -572 582 l-40 52 -55 -117z"/>
<path d="M3747 6324 c-1 -1 -54 -4 -117 -8 -63 -3 -135 -8 -160 -11 -49 -6
-170 -24 -210 -31 -14 -2 -41 -7 -60 -10 -19 -3 -43 -7 -52 -10 -9 -3 -26 -7
-38 -9 -160 -31 -432 -121 -605 -201 -33 -15 -62 -28 -65 -29 -18 -4 -174 -89
-270 -148 -123 -74 -337 -232 -434 -319 -125 -112 -295 -295 -399 -428 -287
-366 -522 -899 -603 -1360 -4 -25 -8 -47 -9 -50 -1 -3 -5 -32 -9 -65 -5 -33
-10 -69 -12 -80 -26 -138 -25 -715 0 -852 2 -10 7 -45 10 -78 4 -33 9 -67 11
-75 2 -8 7 -28 9 -45 5 -29 20 -106 30 -153 19 -89 85 -307 127 -421 189 -506
519 -963 924 -1280 81 -63 262 -187 345 -235 164 -96 411 -204 615 -269 108
-34 281 -79 360 -92 11 -2 47 -9 80 -14 33 -6 78 -13 100 -16 22 -4 51 -8 63
-10 164 -27 768 -27 942 0 14 2 50 7 80 10 30 4 102 16 160 27 58 11 116 22
129 24 50 10 257 66 274 75 9 5 17 8 17 5 0 -10 299 99 398 145 34 16 65 29
68 29 11 0 243 120 339 175 192 110 429 276 585 408 l33 28 1 1272 c1 700 0
1278 -2 1285 -3 9 -273 12 -1306 12 l-1301 0 2 -462 c1 -255 2 -466 2 -470 1
-4 346 -7 769 -7 422 0 773 0 780 -1 10 0 12 -118 10 -572 l-3 -572 -70 -48
c-155 -105 -365 -208 -561 -274 -168 -56 -334 -92 -549 -121 -119 -16 -613 -7
-644 11 -3 2 -27 7 -52 10 -139 19 -400 103 -558 181 -351 173 -670 490 -854
850 -42 83 -117 258 -117 274 0 6 -4 19 -9 29 -36 65 -100 354 -117 527 -3 39
-8 81 -10 95 -5 40 -5 356 0 382 3 13 7 52 10 88 3 36 8 76 11 90 2 13 7 41
10 61 10 63 63 270 88 344 203 587 644 1067 1162 1265 33 12 69 26 80 31 87
36 316 84 455 95 135 11 426 5 505 -10 11 -2 43 -7 70 -10 43 -6 77 -12 170
-30 333 -67 689 -245 1014 -506 62 -51 117 -88 121 -83 4 4 128 152 275 328
147 176 288 344 313 373 91 107 88 100 62 124 -30 29 -154 125 -220 173 -30
22 -57 42 -60 45 -12 13 -70 50 -78 50 -5 0 -17 9 -27 20 -10 11 -22 20 -26
20 -5 0 -40 21 -79 46 -80 52 -341 184 -390 199 -3 1 -23 9 -45 19 -37 16
-235 85 -259 91 -6 1 -18 5 -26 8 -50 19 -340 81 -435 93 -22 2 -49 6 -60 8
-11 2 -54 7 -95 11 -41 4 -86 8 -100 11 -50 8 -506 24 -513 18z"/>
<path d="M10917 6324 c-1 -1 -72 -4 -157 -8 -85 -3 -168 -8 -185 -11 -16 -2
-77 -11 -135 -19 -113 -17 -156 -24 -180 -31 -8 -2 -31 -7 -50 -10 -19 -3 -85
-19 -146 -35 -974 -258 -1751 -954 -2111 -1890 -39 -103 -95 -278 -108 -340
-2 -8 -13 -53 -24 -100 -11 -47 -23 -103 -26 -125 -4 -22 -8 -47 -10 -55 -2
-8 -7 -37 -10 -65 -4 -27 -8 -61 -11 -75 -13 -80 -18 -182 -18 -405 -1 -218 4
-314 19 -415 2 -14 7 -48 10 -77 5 -42 44 -240 59 -303 44 -178 100 -343 174
-510 166 -379 359 -660 656 -955 401 -399 891 -669 1456 -803 110 -27 153 -35
285 -57 17 -3 59 -8 95 -11 36 -3 85 -10 110 -14 48 -9 622 -6 680 4 19 3 58
8 85 11 43 5 126 18 250 40 145 27 436 116 605 187 598 251 1109 693 1445
1248 62 102 169 311 205 400 12 30 28 69 36 86 29 67 111 330 129 414 2 8 8
35 14 60 5 25 13 61 16 80 3 19 8 42 10 50 2 8 7 39 10 69 3 30 8 57 9 60 2 3
7 38 10 76 3 39 8 102 12 140 8 88 9 365 1 465 -10 126 -18 204 -22 220 -2 8
-7 38 -10 65 -28 219 -121 541 -231 792 -99 228 -271 515 -409 682 -278 338
-573 583 -941 783 -225 122 -591 258 -788 294 -16 3 -33 7 -36 9 -4 3 -25 7
-46 10 -22 3 -48 8 -60 10 -12 3 -39 7 -60 10 -21 3 -48 7 -59 10 -11 2 -42 7
-70 10 -27 3 -63 8 -80 10 -51 8 -391 24 -398 19z m190 -998 c53 -4 99 -8 102
-10 3 -2 29 -6 58 -10 151 -18 381 -90 557 -176 123 -60 207 -106 216 -120 3
-4 16 -13 30 -20 50 -26 197 -146 286 -235 110 -108 274 -308 274 -333 0 -6 3
-12 8 -14 13 -6 78 -119 137 -238 113 -229 194 -525 221 -800 9 -92 9 -340 0
-435 -27 -309 -137 -677 -267 -897 -16 -27 -29 -52 -29 -55 0 -3 -11 -21 -25
-39 -14 -18 -25 -36 -25 -39 0 -20 -171 -233 -265 -330 -262 -270 -678 -491
-1032 -550 -177 -29 -249 -36 -393 -37 -622 -3 -1203 265 -1585 732 -20 25
-44 54 -54 65 -44 53 -148 223 -205 335 -123 241 -201 508 -234 795 -9 78 -9
433 0 510 13 115 28 210 38 240 5 17 11 44 14 60 7 49 54 200 90 294 73 190
175 372 299 536 77 103 269 294 374 373 131 99 314 205 423 246 191 73 357
119 469 132 31 3 59 8 62 10 3 2 46 6 95 10 49 3 90 7 91 8 4 3 182 -3 270 -8z"/>
<path d="M18252 6307 c-5 -6 -66 -111 -136 -232 -69 -121 -130 -227 -135 -235
-10 -16 -143 -246 -171 -295 -58 -101 -262 -453 -270 -465 -6 -8 -13 -22 -17
-30 -3 -8 -21 -39 -40 -68 -18 -29 -33 -54 -33 -56 0 -3 -19 -37 -43 -78 -24
-40 -55 -93 -69 -118 -22 -38 -222 -385 -253 -438 -5 -9 -53 -91 -105 -182
-52 -91 -99 -173 -105 -182 -5 -9 -31 -54 -58 -100 -26 -46 -62 -108 -80 -139
-17 -30 -79 -137 -137 -237 -58 -101 -113 -197 -124 -215 -10 -17 -94 -162
-186 -322 -92 -159 -177 -306 -188 -325 -37 -66 -342 -595 -352 -610 -5 -8
-49 -85 -98 -170 -171 -295 -385 -665 -402 -695 -94 -160 -168 -289 -193 -335
-16 -30 -38 -66 -47 -80 -9 -14 -30 -50 -47 -80 -17 -30 -78 -138 -138 -240
-174 -300 -158 -270 -138 -271 91 -4 340 7 463 22 149 17 322 43 395 59 22 5
51 11 65 14 14 3 36 8 50 11 14 3 36 7 50 10 22 4 263 73 330 95 188 60 483
195 657 301 565 344 891 809 915 1309 l3 55 -263 1 c-144 1 -264 3 -266 5 -2
2 44 85 101 184 108 183 121 206 165 285 14 25 71 123 127 219 55 96 101 176
101 178 0 2 11 20 24 41 12 20 75 127 138 237 198 344 310 539 329 570 10 17
26 46 37 65 11 19 49 86 85 148 l66 113 54 -93 c30 -51 84 -145 120 -208 35
-63 99 -173 141 -244 42 -70 76 -130 76 -132 0 -2 18 -34 40 -70 22 -36 40
-68 40 -70 0 -3 11 -21 24 -42 13 -20 95 -161 182 -312 87 -151 229 -398 316
-548 87 -150 164 -285 172 -300 l14 -27 -267 0 -266 0 1 -35 c14 -665 598
-1286 1514 -1608 298 -105 588 -170 915 -207 28 -3 64 -8 80 -10 76 -10 387
-21 427 -16 7 1 -47 95 -412 726 -51 88 -133 230 -182 315 -49 85 -93 162 -98
170 -27 44 -210 363 -210 367 0 2 -17 32 -39 66 -21 34 -69 116 -106 182 -38
66 -78 136 -90 155 -12 19 -36 61 -54 93 -18 32 -121 212 -230 400 -109 188
-251 434 -316 547 -178 308 -262 454 -282 488 -96 164 -189 328 -191 339 -2 7
-8 13 -13 13 -5 0 -9 4 -9 9 0 8 -175 314 -360 631 -21 36 -88 153 -150 260
-61 107 -127 220 -145 250 -18 30 -42 72 -54 93 -37 65 -56 100 -130 227 -39
69 -75 132 -80 140 -13 20 -243 418 -347 597 -59 104 -84 139 -92 130z m125
-322 c55 -93 153 -260 218 -370 129 -217 251 -424 325 -550 26 -44 100 -169
164 -277 64 -108 116 -200 116 -205 0 -4 -4 -3 -8 2 -18 27 -270 221 -277 214
-2 -2 -20 -67 -40 -144 -20 -77 -38 -148 -42 -159 -5 -18 -15 -4 -90 120 -177
295 -219 363 -224 364 -4 0 -22 -33 -41 -72 -107 -226 -133 -278 -138 -278 -5
0 -36 94 -115 343 -20 64 -41 117 -46 117 -5 0 -9 -4 -9 -9 0 -4 -35 -82 -79
-172 -43 -90 -106 -222 -140 -294 l-62 -129 -70 174 c-39 96 -73 181 -76 188
-8 18 -16 15 -50 -15 -63 -56 -377 -318 -397 -333 -18 -12 -20 -12 -9 0 9 13
131 221 215 370 14 25 48 83 75 130 27 47 61 105 75 130 14 25 54 95 90 156
36 61 68 117 71 125 4 8 17 30 28 49 21 35 269 464 306 530 11 19 32 55 47 80
14 25 34 60 43 78 13 26 19 30 29 20 6 -7 56 -89 111 -183z"/>
<path d="M22119 6211 c-1 -3 -2 -226 -3 -496 l-1 -490 970 -5 970 -5 1 -2545
c1 -1400 2 -2550 3 -2557 1 -9 131 -12 541 -11 l540 0 0 2559 0 2559 969 0
968 0 0 499 0 499 -2479 0 c-1363 0 -2479 -3 -2479 -7z"/>
</g>
</svg>
